<svg width="385" height="399" viewBox="0 0 385 399" fill="none" xmlns="http://www.w3.org/2000/svg">
<g filter="url(#filter0_d_46_2)">
<line x1="32.5" y1="2.18557e-08" x2="32.5" y2="385" stroke="white" stroke-opacity="0.5"/>
<line x1="32.5" y1="2.18557e-08" x2="32.5" y2="385" stroke="white" stroke-opacity="0.5"/>
<line x1="32.5" y1="2.18557e-08" x2="32.5" y2="385" stroke="white" stroke-opacity="0.5"/>
<line x1="139.5" y1="2.18557e-08" x2="139.5" y2="385" stroke="white" stroke-opacity="0.5"/>
<line x1="139.5" y1="2.18557e-08" x2="139.5" y2="385" stroke="white" stroke-opacity="0.5"/>
<line x1="139.5" y1="2.18557e-08" x2="139.5" y2="385" stroke="white" stroke-opacity="0.5"/>
<line x1="246.5" y1="2.18557e-08" x2="246.5" y2="385" stroke="white" stroke-opacity="0.5"/>
<line x1="246.5" y1="2.18557e-08" x2="246.5" y2="385" stroke="white" stroke-opacity="0.5"/>
<line x1="246.5" y1="2.18557e-08" x2="246.5" y2="385" stroke="white" stroke-opacity="0.5"/>
<line x1="353.5" y1="2.18557e-08" x2="353.5" y2="385" stroke="white" stroke-opacity="0.5"/>
<line x1="353.5" y1="2.18557e-08" x2="353.5" y2="385" stroke="white" stroke-opacity="0.5"/>
<line x1="353.5" y1="2.18557e-08" x2="353.5" y2="385" stroke="white" stroke-opacity="0.5"/>
<line x1="3.05176e-05" y1="352.5" x2="385" y2="352.5" stroke="white" stroke-opacity="0.5"/>
<line x1="3.05176e-05" y1="352.5" x2="385" y2="352.5" stroke="white" stroke-opacity="0.5"/>
<line x1="3.05176e-05" y1="352.5" x2="385" y2="352.5" stroke="white" stroke-opacity="0.5"/>
<line x1="3.05176e-05" y1="245.5" x2="385" y2="245.5" stroke="white" stroke-opacity="0.5"/>
<line x1="3.05176e-05" y1="245.5" x2="385" y2="245.5" stroke="white" stroke-opacity="0.5"/>
<line x1="3.05176e-05" y1="245.5" x2="385" y2="245.5" stroke="white" stroke-opacity="0.5"/>
<line y1="138.5" x2="385" y2="138.5" stroke="white" stroke-opacity="0.5"/>
<line y1="138.5" x2="385" y2="138.5" stroke="white" stroke-opacity="0.5"/>
<line y1="138.5" x2="385" y2="138.5" stroke="white" stroke-opacity="0.5"/>
<line y1="31.5" x2="385" y2="31.5" stroke="white" stroke-opacity="0.5"/>
<line y1="31.5" x2="385" y2="31.5" stroke="white" stroke-opacity="0.5"/>
<line y1="31.5" x2="385" y2="31.5" stroke="white" stroke-opacity="0.5"/>
</g>
<g filter="url(#filter1_d_46_2)">
<path d="M182 138.5C182 161.972 162.972 181 139.5 181C116.028 181 97 161.972 97 138.5C97 115.028 116.028 96 139.5 96C162.972 96 182 115.028 182 138.5Z" fill="white"/>
</g>
<g filter="url(#filter2_d_46_2)">
<circle cx="246.5" cy="245.5" r="42.5" fill="white"/>
</g>
<g filter="url(#filter3_d_46_2)">
<circle cx="246.5" cy="352.5" r="42.5" fill="white"/>
</g>
<defs>
<filter id="filter0_d_46_2" x="0" y="0" width="385" height="389" filterUnits="userSpaceOnUse" color-interpolation-filters="sRGB">
<feFlood flood-opacity="0" result="BackgroundImageFix"/>
<feColorMatrix in="SourceAlpha" type="matrix" values="0 0 0 0 0 0 0 0 0 0 0 0 0 0 0 0 0 0 127 0" result="hardAlpha"/>
<feOffset dy="4"/>
<feComposite in2="hardAlpha" operator="out"/>
<feColorMatrix type="matrix" values="0 0 0 0 0 0 0 0 0 0 0 0 0 0 0 0 0 0 0.25 0"/>
<feBlend mode="normal" in2="BackgroundImageFix" result="effect1_dropShadow_46_2"/>
<feBlend mode="normal" in="SourceGraphic" in2="effect1_dropShadow_46_2" result="shape"/>
</filter>
<filter id="filter1_d_46_2" x="97" y="96" width="85" height="89" filterUnits="userSpaceOnUse" color-interpolation-filters="sRGB">
<feFlood flood-opacity="0" result="BackgroundImageFix"/>
<feColorMatrix in="SourceAlpha" type="matrix" values="0 0 0 0 0 0 0 0 0 0 0 0 0 0 0 0 0 0 127 0" result="hardAlpha"/>
<feOffset dy="4"/>
<feComposite in2="hardAlpha" operator="out"/>
<feColorMatrix type="matrix" values="0 0 0 0 0 0 0 0 0 0 0 0 0 0 0 0 0 0 0.25 0"/>
<feBlend mode="normal" in2="BackgroundImageFix" result="effect1_dropShadow_46_2"/>
<feBlend mode="normal" in="SourceGraphic" in2="effect1_dropShadow_46_2" result="shape"/>
</filter>
<filter id="filter2_d_46_2" x="204" y="203" width="85" height="89" filterUnits="userSpaceOnUse" color-interpolation-filters="sRGB">
<feFlood flood-opacity="0" result="BackgroundImageFix"/>
<feColorMatrix in="SourceAlpha" type="matrix" values="0 0 0 0 0 0 0 0 0 0 0 0 0 0 0 0 0 0 127 0" result="hardAlpha"/>
<feOffset dy="4"/>
<feComposite in2="hardAlpha" operator="out"/>
<feColorMatrix type="matrix" values="0 0 0 0 0 0 0 0 0 0 0 0 0 0 0 0 0 0 0.25 0"/>
<feBlend mode="normal" in2="BackgroundImageFix" result="effect1_dropShadow_46_2"/>
<feBlend mode="normal" in="SourceGraphic" in2="effect1_dropShadow_46_2" result="shape"/>
</filter>
<filter id="filter3_d_46_2" x="204" y="310" width="85" height="89" filterUnits="userSpaceOnUse" color-interpolation-filters="sRGB">
<feFlood flood-opacity="0" result="BackgroundImageFix"/>
<feColorMatrix in="SourceAlpha" type="matrix" values="0 0 0 0 0 0 0 0 0 0 0 0 0 0 0 0 0 0 127 0" result="hardAlpha"/>
<feOffset dy="4"/>
<feComposite in2="hardAlpha" operator="out"/>
<feColorMatrix type="matrix" values="0 0 0 0 0 0 0 0 0 0 0 0 0 0 0 0 0 0 0.25 0"/>
<feBlend mode="normal" in2="BackgroundImageFix" result="effect1_dropShadow_46_2"/>
<feBlend mode="normal" in="SourceGraphic" in2="effect1_dropShadow_46_2" result="shape"/>
</filter>
</defs>
</svg>
